<svg xmlns="http://www.w3.org/2000/svg" viewBox="0 0 200 100">
  <!-- Pattern definitions -->
  <defs>
    <pattern id="examPattern" x="0" y="0" width="20" height="20" patternUnits="userSpaceOnUse">
      <!-- Multiple choice circles -->
      <circle cx="5" cy="5" r="1" fill="#818cf8" opacity="0.3"/>
      <!-- Checkmark -->
      <path d="M15 3 L17 5 L19 2" stroke="#6366f1" stroke-width="0.5" opacity="0.3"/>
      <!-- Mathematical symbols -->
      <text x="3" y="15" font-size="4" fill="#4f46e5" opacity="0.3">ร</text>
      <text x="12" y="18" font-size="4" fill="#4f46e5" opacity="0.3">รท</text>
      <!-- Question mark -->
      <text x="17" y="13" font-size="4" fill="#6366f1" opacity="0.3">?</text>
    </pattern>
    
    <!-- Create a circular clip path -->
    <clipPath id="circleClip">
      <circle cx="100" cy="50" r="40"/>
    </clipPath>
  </defs>

  <!-- Main circular background with pattern -->
  <circle cx="100" cy="50" r="40" fill="url(#examPattern)" stroke="#6366f1" stroke-width="2"/>
  
  <!-- Group all content and clip it to the circle -->
  <g clip-path="url(#circleClip)">
    <!-- Book shape -->
    <path d="M70 35 L100 30 L130 35 L100 40 Z" fill="#6366f1"/>
    <path d="M70 35 L100 80 L130 35" fill="#4f46e5"/>
    
    <!-- Paper overlay -->
    <path d="M85 25 
             L115 25 
             L115 75 
             L85 75 
             Z" 
          fill="#f1f5f9" 
          stroke="#818cf8" 
          stroke-width="1.5"/>
    
    <!-- Paper lines -->
    <line x1="90" y1="35" x2="110" y2="35" stroke="#6366f1" stroke-width="1"/>
    <line x1="90" y1="45" x2="110" y2="45" stroke="#6366f1" stroke-width="1"/>
    <line x1="90" y1="55" x2="110" y2="55" stroke="#6366f1" stroke-width="1"/>
    <line x1="90" y1="65" x2="110" y2="65" stroke="#6366f1" stroke-width="1"/>
    
    <!-- Elegant Pen -->
    <g transform="rotate(-45, 120, 40)">
      <!-- Pen body -->
      <path d="M110 35
               L130 35
               L128 45
               L112 45
               Z" 
            fill="#4f46e5"/>
      
      <!-- Pen tip -->
      <path d="M130 35
               L135 40
               L133 42
               L128 45
               Z" 
            fill="#818cf8"/>
      
      <!-- Pen grip -->
      <rect x="112" y="35" width="4" height="10" fill="#818cf8"/>
      
      <!-- Highlight -->
      <line x1="114" y1="37" x2="126" y2="37" stroke="#f1f5f9" stroke-width="0.5"/>
    </g>
    
    <!-- Additional exam-related details -->
    <g transform="translate(65, 20) scale(0.6)">
      <!-- Small checkbox -->
      <rect x="0" y="0" width="4" height="4" fill="none" stroke="#818cf8" stroke-width="0.5" opacity="0.4"/>
      <path d="M0.5 2 L1.5 3 L3.5 0.5" stroke="#818cf8" stroke-width="0.5" opacity="0.4"/>
    </g>
    
    <g transform="translate(130, 70) scale(0.6)">
      <!-- Multiple choice bubbles -->
      <circle cx="0" cy="0" r="1.5" fill="none" stroke="#818cf8" stroke-width="0.5" opacity="0.4"/>
      <circle cx="6" cy="0" r="1.5" fill="none" stroke="#818cf8" stroke-width="0.5" opacity="0.4"/>
      <circle cx="12" cy="0" r="1.5" fill="none" stroke="#818cf8" stroke-width="0.5" opacity="0.4"/>
    </g>
  </g>
</svg>
